<?xml version="1.0" encoding="utf-8"?>
<!-- Generator: Adobe Illustrator 17.1.0, SVG Export Plug-In . SVG Version: 6.00 Build 0)  -->
<!DOCTYPE svg PUBLIC "-//W3C//DTD SVG 1.1//EN" "http://www.w3.org/Graphics/SVG/1.1/DTD/svg11.dtd">
<svg version="1.1" id="Layer_1" xmlns="http://www.w3.org/2000/svg" xmlns:xlink="http://www.w3.org/1999/xlink" x="0px" y="0px"
	 viewBox="147.6 59.8 300 300" enable-background="new 147.6 59.8 300 300" xml:space="preserve">
<path fill="#006838" d="M374.1,235c-26.9,29-33.3,65.4-38.5,102.3c-0.5,3.7,1.6,4.1,4.3,3.2c10.5-3.2,20.6-7.5,29.5-13.7
	c6-4.2,3.8-11.7,4.9-17.7c6.2-32.3,14.2-63.7,38.9-90.1C396.4,219.2,383.8,224.5,374.1,235z M376.6,220.4c-4.3,0.6-6.4,0.7-8.2,1.1
	c-21.2,5.2-33.1,20.1-41.7,38.2c-10.6,22.4-16.8,46.4-26.3,69.1c-8.4,19.9-8.3,19.8,13.9,17.6c7.7-0.8,11.4-3.1,12.6-11.8
	C332.5,293.2,340.7,252.4,376.6,220.4z M341.4,223.5c-9.2,1.7-16.9,6.1-23.7,12.3c-9.9,8.9-17.4,19.6-23.8,31
	C281,289.5,272,314,258.3,336.3c-0.9,1.4-2.6,3.4-1.2,4.5c5.5,4.4,12.8,3.7,19.3,5.4c4.7,1.2,6.7-1.5,8.5-5.1
	c6.7-13.5,11.8-27.5,16.9-41.6C311.5,272.6,318.6,244.5,341.4,223.5z M431.3,221.5c-5.4-2.6-10.6,3.4-14.3,7.4
	c-22.6,24.4-28.7,54.8-34.3,87.6c3.1-1.8,4.3-2.2,5.2-3.1c23.9-21.2,38.8-47.1,43.6-78.2C432.2,230.7,436.1,223.8,431.3,221.5z
	 M314.1,225.1c-8.3,1.8-14.9,5.6-20.6,10.9c-8.2,7.6-15.3,16.1-21.3,25.5c-13.2,20.2-26.3,40.4-39.3,60.8c-1.8,2.8-8.7,6.6-0.7,9.6
	c5.4,2.1,11.5,11.1,17.8,0.4c7-11.8,13-24.1,19-36.4C281.1,270.5,292.5,244.7,314.1,225.1z M241.3,282.6c4.7,0,7.9-1,9.8-5.4
	c2.4-5.4,10.1-10.7,7.5-15.3c-2.7-4.7-11.4-1.1-16.9-2c-19.1,0.2-37,4.1-54.5,10.7c-13.5,5.2-13.1,5.2-5.5,17.2
	c4.2,6.6,7.7,9,16,4.7C211.1,285.6,226.1,282.6,241.3,282.6z M263.7,252.4c5.8,0.9,8.2-4.4,9-7.9c0.9-4.7-4.6-3.5-7.5-4
	c-10.8-2.1-21.8-2.5-32.7-2.1c-6.1,0-12.3-0.4-18.4,0.1c-15,1.1-29.7,4.1-43.7,9.9c-8.3,3.5-3.5,8.6-2.1,13.3c1,3.5,2,6.9,7.7,4.4
	C203.9,253.8,232.9,247.7,263.7,252.4z M347,206.1c5.7,5.2,11.2,4.4,14.9-2.2c3.2-5.7,3.7-12,4-20c-0.2-3.9-0.1-9.7-2.4-14.9
	c-1.7-4-3-8.6-8.7-8.5c-5.5,0-7.4,4-8.6,8.4c-0.6,2.2-1.2,4.1-2.7,6.2C337.4,183.5,339.4,199.1,347,206.1z M260.4,210.6
	c6.4,1,12.7,2.6,19.1,3.8c2.5,0.4,6.4,1.7,5.9-2.7c-1.3-12.1,5-21.8,9.6-32c1.7-3.9,0.9-5.7-3.5-5.2c-14.4,0-33.2,16.1-35.1,29.6
	C255.9,207.4,256.1,209.9,260.4,210.6z M200.8,300.7c-1.7,0.8-4.1,1.2-4.2,3.7c-0.2,3,19.8,19.8,22.7,18.8c1.5-0.4,2.8-1.8,3.8-3.1
	c6.5-8.5,12.9-17.1,18.6-28.1C226.2,291.7,213.2,295,200.8,300.7z M184.9,234.5c31.7-8.3,63.5-6.3,96.6-0.3
	c-2.2-3.4-4.7-3.4-6.8-3.9c-29-7-58.2-7.3-87.5-2.6c-7.1,1.2-14,3.2-21,4.7c-3.7,0.8-5.5,2.8-4.4,6.4c1.3,4.4,4.3,1.7,6.6,1
	C173.9,238.1,179.3,235.9,184.9,234.5z M324.8,197.3c3.3,0.1,9.7,2.8,9.1-1.5c-0.8-6.3,3.5-15.4-4.2-18.7c-8.1-3.5-17.1-6-29-6.9
	C309.4,180.5,306.4,197.3,324.8,197.3z M365.2,212.2c6-0.6,11-1.2,16-1.7c2.5-0.2,4.5-0.8,5.9-3.2c3.2-5.7,1-23.8-3.5-28.8
	c-2-2.1-4.2-3.3-7.3-2.6c-3.8,0.8-4.7,3.6-4.4,6.8C372.8,192.9,370.3,202.3,365.2,212.2z M295,209.7c1.1,2.8-2,7.9,2.9,8.1
	c5.6,0.2,5.2-5.3,4.9-9.2c-0.2-3.4,1.6-9-3.8-8.7C293,200.2,296,206.1,295,209.7z M322.6,201.2c-3.7,0.1-2.3,4-2.8,6.3
	c0.6,2.3-0.9,6,2.9,6.1c3.9,0.2,3.5-3.4,3.5-5.8C326.1,205.1,326.9,201.1,322.6,201.2z"/>
</svg>
