<?xml version="1.0" encoding="utf-8"?>
<!-- Generator: Adobe Illustrator 17.1.0, SVG Export Plug-In . SVG Version: 6.00 Build 0)  -->
<!DOCTYPE svg PUBLIC "-//W3C//DTD SVG 1.1//EN" "http://www.w3.org/Graphics/SVG/1.1/DTD/svg11.dtd">
<svg version="1.1" id="Layer_1" xmlns="http://www.w3.org/2000/svg" xmlns:xlink="http://www.w3.org/1999/xlink" x="0px" y="0px"
	 viewBox="0 0 300 300" enable-background="new 0 0 300 300" xml:space="preserve">
<path fill="#006838" d="M15,154.5c1-1.6,2-3.1,3.5-4.4c7.5-6.7,14.9-13.4,22.4-20.1c5-4.4,9.4-4.2,14.1,0.6
	c17,17.3,33.9,34.5,50.8,51.8c0.9,0.9,1.7,1.8,2.7,2.7c3.9,3.5,8.1,3.6,12,0c2.9-2.7,5.6-5.5,8.4-8.3c28.9-28.8,57.8-57.6,86.7-86.4
	c9.7-9.7,19.5-19.3,29.2-29c4.5-4.5,9.3-4.5,13.8,0.1c7.4,7.4,14.8,14.8,22.2,22.3c4.5,4.6,4.5,9.6,0,14.1
	c-52.9,52.9-105.9,105.8-158.9,158.7c-5.1,5.1-9.8,5.1-14.9-0.1c-30.4-30.2-59.9-61.3-89.3-92.4c-1-1.1-1.8-2.4-2.7-3.7
	C15,158.5,15,156.5,15,154.5z"/>
</svg>
