<?xml version="1.0" encoding="utf-8"?>
<!-- Generator: Adobe Illustrator 17.1.0, SVG Export Plug-In . SVG Version: 6.00 Build 0)  -->
<!DOCTYPE svg PUBLIC "-//W3C//DTD SVG 1.1//EN" "http://www.w3.org/Graphics/SVG/1.1/DTD/svg11.dtd">
<svg version="1.1" id="Layer_1" xmlns="http://www.w3.org/2000/svg" xmlns:xlink="http://www.w3.org/1999/xlink" x="0px" y="0px"
	 viewBox="0 0 300 300" enable-background="new 0 0 300 300" xml:space="preserve">
<path fill="#006838" d="M261.3,173.3c-4.5,22.3-15.5,42.6-31.8,58.6c-16.6,16.4-37.6,27.1-60.8,31c-28.8,4.9-58.3-1.6-82.3-17.7
	l8.8-11.3l-55.6-7.7l21.1,52l9.2-11.8c23.5,16.2,51.4,24.9,79.9,24.9c7.8,0,15.6-0.6,23.4-2c28.6-4.8,54.6-18.1,75.1-38.3
	c20.1-19.8,33.7-44.8,39.3-72.3L261.3,173.3z M72.6,68.7c16.6-16.4,37.7-27.1,60.8-31c28.8-4.9,58.3,1.6,82.3,17.7l-8.8,11.3
	l55.6,7.8l-21.1-52.1l-9.2,11.8c-29.9-20.7-67.1-29-103.3-22.9c-28.6,4.8-54.5,18.1-75.1,38.3c-20.1,19.8-33.7,44.8-39.3,72.3
	l26.3,5.4C45.3,105,56.3,84.7,72.6,68.7z M123.1,219.7c-2.9,1.5-6,2.8-9.9,4.6c1.6,0.2,2.1,0.4,2.5,0.3c18.9-4.5,38.2-5.9,57.4-8
	c26.2-2.9,38.6-13.9,45-39.1c4.5-18,4.4-36.2,3-54.6c-0.3-4.7-2.2-5.1-6.2-4.1c-14.5,3.7-28.5,8.7-42.3,14.5
	c1.8-2.4,0.4-4.4-0.9-6.5c-9.4-13.8-22.1-23.4-38-28.4c-7.8-2.5-15.8-4-23.4-7.1c-7.4-3-14.7-6.2-20.3-12.2
	c-1.1-1.2-1.7-3.5-3.6-3.1c-2,0.4-1.7,2.8-2.1,4.3c-3.9,16-5.2,32.1-3.3,48.5c3.8,32.5,18.9,57.3,48.3,72.7c1.6,0.8,3.8,2.9,5.3,0.5
	c1.2-1.9,0.4-4.5-1.1-6.2c-0.9-1.2-2.4-1.9-3.7-2.6c-11.4-6.2-20.8-14.6-27.8-25.6c-14.7-23.3-16.3-48.7-12.6-75.1
	c0.6-4,2.7-1.8,4.3-0.9c10.1,5.7,20.9,9.6,32.2,12.3c16.8,3.9,30.1,13,39.7,27.3c1.4,2.1,2.9,3.3,5.4,2.9c0.1-0.1,0.2-0.1,0.3-0.2
	c-0.1,0.1-0.3,0.2-0.4,0.3c-8.6,5.7-17.9,10.6-24.4,18.9c-2.6,3.4-4.2,3.1-7.1,0.4c-13.5-12.9-25.9-26.8-36.7-42.1
	c-2.5-3.4-4.7-7-7.1-10.5c-0.5,0.9-0.5,1.4-0.3,1.8c0.8,1.5,1.6,3,2.4,4.5c10.7,18.5,23,36,38.9,50.6c1.8,1.7,4.2,3.3,2.6,6.4
	c-5.2,10.4-5.5,21.4-3,32.3C139.1,209.4,132.3,214.9,123.1,219.7z M215.8,129c-9.3,34.5-34.2,56.1-61.9,75.6
	C179,183.1,201.9,159.8,215.8,129z"/>
</svg>
