<?xml version="1.0" encoding="utf-8"?>
<!-- Generator: Adobe Illustrator 17.1.0, SVG Export Plug-In . SVG Version: 6.00 Build 0)  -->
<!DOCTYPE svg PUBLIC "-//W3C//DTD SVG 1.1//EN" "http://www.w3.org/Graphics/SVG/1.1/DTD/svg11.dtd">
<svg version="1.1" id="Layer_1" xmlns="http://www.w3.org/2000/svg" xmlns:xlink="http://www.w3.org/1999/xlink" x="0px" y="0px"
	 viewBox="0 0 300 300" enable-background="new 0 0 300 300" xml:space="preserve">
<path fill="#006838" d="M108.7,166.1c1,1.4,2.6,2.4,3.6,3.7c5.9,7.5,11.1,8.1,17-0.4c4.9-7,10.6-13.5,16-20.2
	c16.5-20.6,16.5-20.6,32.5-0.3c1.8,2.3,3.9,4.6,5.5,7.1c5.5,8.4,10.5,9.1,17.9,1.2c18.2-19.5,37.5-37.9,55.7-57.3
	c7.4-7.9,12.4-9.4,17.8,1.3c1.2,2.4,3,5.9,6.7,4.6c2.7-0.9,2.7-4.1,2.8-6.7c0.2-11.6,0.4-23.2,0.5-34.8c0.1-5.6-2.1-9.5-8.5-8.2
	c-16.3,3.2-32.6,6.7-49.8,10.2c3.3,6.5,7.7,6.7,11.1,7.9c7.9,2.4,8.9,4.8,2.2,10.6c-12.9,11.2-25.4,23.1-37.8,35
	c-5.6,5.4-9.8,5.5-14.5-1.2c-6-8.4-13-16-19.1-24.3c-4.7-6.4-8.2-5.9-12.8,0.1c-7.8,10.3-16.2,20.1-24.2,30.2
	c-12.7,16.1-11.1,16.5-25,1.6c-7.2-7.7-11.6-7.3-18.2,0.7c-23,27.8-46.5,55.2-70.1,82.5c-5.7,6.6-7.6,11.1,0.5,17.8
	c7.5,6.1,12.5,8.8,19.8-0.3c16.2-20,33.6-39.1,49.7-59.2C95.1,158.8,100.9,155.5,108.7,166.1z M278.7,230.9
	c-7.2-0.6-14.5-1.4-21.8-1.4c-62.3,0-124.6,0-186.9,0.3c-6.1,0.1-10.1-0.4-9.9-7.8c0.1-2.9-0.7-7.6-4.7-4.8
	c-6.7,4.8-11.7,11.4-10.9,20.6c0.8,9,7.7,7.7,13.6,7.7h107c33.9,0,67.9,0,101.7-0.1c3.9,0,7.8,0,11.6-0.3c4.2-0.4,7.7-2.4,7.8-7
	C286.3,233.6,283.1,231.3,278.7,230.9z M47.9,162.1c4.8,0.8,7.5-6.2,10.4-10.3c2.4-3.2,2-7.3,2-11.2v-33.5
	c-0.1-10.3,0.4-20.6-0.2-31c-0.4-7,3.2-18.4-8.2-18.1c-10.9,0.3-7.6,11.6-7.7,18.7c-0.4,24-0.3,48.1,0,72.2
	C44.3,153.6,41.6,161,47.9,162.1z"/>
</svg>
